<svg xmlns="http://www.w3.org/2000/svg" xmlns:xlink="http://www.w3.org/1999/xlink" width="1080" zoomAndPan="magnify" viewBox="0 0 810 809.999993" height="1080" preserveAspectRatio="xMidYMid meet" version="1.0"><path fill="#16213e" d="M 384.289062 7.320312 C 397.167969 0.09375 413.027344 0.09375 425.890625 7.320312 C 489.535156 43.027344 681.0625 150.511719 744.726562 186.21875 C 757.605469 193.425781 765.535156 206.777344 765.535156 221.226562 C 765.535156 292.640625 765.535156 507.589844 765.535156 579.003906 C 765.535156 593.457031 757.605469 606.804688 744.726562 614.03125 C 681.078125 649.738281 489.554688 757.222656 425.890625 792.929688 C 413.007812 800.15625 397.148438 800.15625 384.289062 792.929688 C 320.640625 757.222656 129.117188 649.738281 65.453125 614.03125 C 52.589844 606.804688 44.660156 593.472656 44.660156 579.023438 C 44.660156 507.609375 44.660156 292.660156 44.660156 221.246094 C 44.660156 206.792969 52.589844 193.445312 65.46875 186.21875 C 129.097656 150.511719 320.660156 43.027344 384.289062 7.320312 Z M 384.289062 7.320312 " fill-opacity="1" fill-rule="evenodd"/><path fill="#16213e" d="M 50.425781 597.417969 C 45.378906 590.667969 44.660156 584.257812 44.660156 575.628906 C 44.660156 504.632812 44.660156 290.914062 44.660156 219.898438 C 44.660156 205.523438 52.570312 192.25 65.414062 185.082031 C 128.832031 149.582031 319.710938 42.722656 383.128906 7.207031 C 395.972656 0.0195312 413.367188 0.171875 426.210938 7.359375 C 489.628906 42.855469 679.867188 148.804688 743.285156 184.304688 C 748.40625 187.1875 752.3125 190.65625 755.804688 195.226562 Z M 50.425781 597.417969 " fill-opacity="1" fill-rule="evenodd"/><path fill="#ffffff" d="M 405.097656 134.640625 C 551.683594 134.640625 670.683594 253.597656 670.683594 400.125 C 670.683594 546.652344 551.683594 665.609375 405.097656 665.609375 C 258.511719 665.609375 139.511719 546.652344 139.511719 400.125 C 139.511719 253.597656 258.511719 134.640625 405.097656 134.640625 Z M 405.097656 267.382812 C 478.378906 267.382812 537.890625 326.851562 537.890625 400.125 C 537.890625 473.378906 478.378906 532.867188 405.097656 532.867188 C 331.816406 532.867188 272.304688 473.378906 272.304688 400.125 C 272.304688 326.851562 331.796875 267.382812 405.097656 267.382812 Z M 405.097656 267.382812 " fill-opacity="1" fill-rule="evenodd"/><path fill="#16213e" d="M 755.765625 195.417969 C 765.554688 204.574219 765.367188 218.382812 765.367188 229.246094 C 765.367188 301.210938 764.757812 505.902344 765.535156 577.867188 C 765.613281 585.378906 763.125 593.285156 759.410156 599.238281 L 397.375 400.125 Z M 755.765625 195.417969 " fill-opacity="1" fill-rule="evenodd"/><path fill="#ffffff" d="M 594.800781 324.273438 L 613.773438 324.273438 L 613.773438 475.976562 L 594.800781 475.976562 Z M 651.714844 324.273438 L 670.683594 324.273438 L 670.683594 475.976562 L 651.714844 475.976562 Z M 651.714844 324.273438 " fill-opacity="1" fill-rule="evenodd"/><path fill="#ffffff" d="M 556.859375 419.089844 L 708.625 419.089844 L 708.625 438.050781 L 556.859375 438.050781 Z M 556.859375 362.199219 L 708.625 362.199219 L 708.625 381.160156 L 556.859375 381.160156 Z M 556.859375 362.199219 " fill-opacity="1" fill-rule="evenodd"/></svg>